<svg xmlns="http://www.w3.org/2000/svg" width="140.59" height="80.444" viewBox="0 0 140.59 80.444"><g transform="translate(70.287 40)"><g transform="translate(-70.287 -40)"><path d="M23.75,51.975,37.25,0l1.2.975L25.2,53.825,0,57.05" fill="#ffbf4f"/><path d="M193.9,121.1,205.8,79l1.2.975-12.75,44.3Z" transform="translate(-145.425 -59.25)" fill="#ffbf4f"/><path d="M301.35,53.825,314.6.975,313.4,0,299.9,51.975H283.3l.625,1.85Z" transform="translate(-212.475)" fill="#ffbf4f"/><path d="M159.625,120.025,157.15,118.7,148.6,60l1-4.4Z" transform="translate(-111.45 -41.7)" fill="#ffbf4f"/><path d="M250.15,148.25l-2.5-.75-6.45-21.825,1.125-4.075Z" transform="translate(-180.9 -91.2)" fill="#ffbf4f"/><path d="M414.3,99.575l-3.45-1.625L403.1,62.275l1.4-5.575Z" transform="translate(-302.325 -42.525)" fill="#ffbf4f"/><g transform="translate(0 0.825)"><path d="M0,218.525,25.2,215.3l3.2,3.225Z" transform="translate(0 -162.3)" fill="#6fc6ca"/><path d="M100.8,56.75,114.05,3.9l-.3,12.925L104,59.975Z" transform="translate(-75.6 -3.75)" fill="#d10026"/><path d="M162.625,81.25l.75-13.5L152.9,3.9l-.3,12.925Z" transform="translate(-114.45 -3.75)" fill="#6fc6ca"/><path d="M206.05,83.3l-12.6,44-.75,13.5,13.25-47.925Z" transform="translate(-144.525 -63.3)" fill="#d10026"/><path d="M253.525,119.525l2.2-3.225-9.925-33-.1,9.575Z" transform="translate(-184.275 -63.3)" fill="#6fc6ca"/><path d="M299.075,218.525,296.4,215.3H279.2l-2.2,3.225Z" transform="translate(-207.75 -162.3)" fill="#d10026"/><path d="M368,3.3l.125,13.35-10.85,42.875L354.6,56.3Z" transform="translate(-265.95 -3.3)" fill="#6fc6ca"/><path d="M418.125,59.525l3-3.7L408.2,3.3l.125,13.35Z" transform="translate(-306.15 -3.3)" fill="#d10026"/><path d="M475.525,217.1,450.9,213.4l-3,3.7Z" transform="translate(-335.925 -160.875)" fill="#6fc6ca"/></g><path d="M4.7,61.1l24.875-2.8L43.1,4.4,53.7,69.75l13-45.2L76.775,58.3h17.75L108.05,4.4l13.125,53.425L144.1,61.6h-26l-10-43.725L97.05,61.6H74.525L66.55,34.425,53.025,83.3,42.775,17.6l-9.95,44Z" transform="translate(-3.525 -3.3)" fill="none" stroke="#002a40" stroke-miterlimit="10" stroke-width="0.187"/></g></g></svg>